<?xml version="1.0" encoding="UTF-8" standalone="no"?> <!-- Created with Vectornator for iOS (http://vectornator.io/) --><!DOCTYPE svg PUBLIC "-//W3C//DTD SVG 1.1//EN" "http://www.w3.org/Graphics/SVG/1.1/DTD/svg11.dtd">
<svg height="100%" style="fill-rule:evenodd;clip-rule:evenodd;stroke-linecap:round;stroke-linejoin:round;" xmlns:xlink="http://www.w3.org/1999/xlink" xmlns="http://www.w3.org/2000/svg" xml:space="preserve" width="100%" xmlns:vectornator="http://vectornator.io" version="1.1" viewBox="0 0 1080 1080">
<metadata>
<vectornator:setting key="DimensionsVisible" value="1"/>
<vectornator:setting key="PencilOnly" value="0"/>
<vectornator:setting key="SnapToPoints" value="1"/>
<vectornator:setting key="OutlineMode" value="0"/>
<vectornator:setting key="CMYKEnabledKey" value="0"/>
<vectornator:setting key="RulersVisible" value="1"/>
<vectornator:setting key="SnapToEdges" value="1"/>
<vectornator:setting key="GuidesVisible" value="1"/>
<vectornator:setting key="DisplayWhiteBackground" value="1"/>
<vectornator:setting key="doHistoryDisabled" value="0"/>
<vectornator:setting key="SnapToGuides" value="1"/>
<vectornator:setting key="TimeLapseWatermarkDisabled" value="0"/>
<vectornator:setting key="Units" value="Pixels"/>
<vectornator:setting key="DynamicGuides" value="1"/>
<vectornator:setting key="IsolateActiveLayer" value="0"/>
<vectornator:setting key="SnapToGrid" value="1"/>
</metadata>
<defs/>
<g id="1 _" vectornator:layerName="1 _" visibility="hidden">
<path d="M123.183+623.313C123.183+387.073+314.694+195.562+550.934+195.562C787.175+195.562+978.685+387.073+978.685+623.313C978.685+859.554+787.175+1051.06+550.934+1051.06C314.694+1051.06+123.183+859.554+123.183+623.313Z" opacity="1" fill="#f3cb7f"/>
</g>
<g id="Layer 1" vectornator:layerName="Layer 1">
<path stroke="#f4a40d" stroke-width="30" d="M90.1265+695.016L547.693+237.45" fill="#132d72" stroke-linecap="round" opacity="1" stroke-linejoin="round"/>
<path stroke="#f4a40d" stroke-width="30" d="M547.693+237.45L633.15+322.907" fill="#132d72" stroke-linecap="round" opacity="1" stroke-linejoin="round"/>
<path stroke="#f4a40d" stroke-width="30" d="M412.334+569.836L671.387+310.782" fill="#132d72" stroke-linecap="round" opacity="1" stroke-linejoin="round"/>
<path stroke="#f4a40d" stroke-width="30" d="M671.387+310.782L924.19+569.836" fill="#132d72" stroke-linecap="round" opacity="1" stroke-linejoin="round"/>
<path stroke="#f4a40d" stroke-width="30" d="M555.558+569.489L665.705+459.342" fill="#132d72" stroke-linecap="round" opacity="1" stroke-linejoin="round"/>
<path stroke="#f4a40d" stroke-width="30" d="M924.19+573.834L552.658+573.834" fill="#132d72" stroke-linecap="round" opacity="1" stroke-linejoin="round"/>
</g>
<g id="Layer 2" vectornator:layerName="Layer 2">
<g opacity="1">
<path d="M276.968+659.773L286.133+659.773C296.285+659.773+301.361+655.355+301.361+646.519C301.361+637.683+296.285+633.265+286.133+633.265L276.968+633.265L276.968+659.773ZM276.968+717.301L249.332+717.301L249.332+610.987L293.324+610.987C305.262+610.987+314.404+614.089+320.749+620.293C327.094+626.497+330.266+635.239+330.266+646.519C330.266+657.799+327.094+666.541+320.749+672.745C314.404+678.949+305.262+682.051+293.324+682.051L276.968+682.051L276.968+717.301Z" opacity="1" fill="#132d72"/>
<path d="M422.566+610.987L422.566+717.301L394.93+717.301L394.93+610.987L422.566+610.987Z" opacity="1" fill="#132d72"/>
<path d="M490.05+664.144C490.05+656.248+491.507+648.892+494.421+642.077C497.335+635.262+501.377+629.317+506.547+624.241C511.717+619.165+517.898+615.193+525.089+612.326C532.28+609.459+540.199+608.026+548.847+608.026C557.401+608.026+565.297+609.459+572.535+612.326C579.773+615.193+586.001+619.165+591.218+624.241C596.435+629.317+600.5+635.262+603.414+642.077C606.328+648.892+607.785+656.248+607.785+664.144C607.785+671.476+606.587+678.291+604.19+684.589C601.793+690.887+598.338+696.48+593.826+701.368L611.874+720.262L586.494+724.21L576.765+714.199C572.629+716.079+568.235+717.559+563.582+718.64C558.929+719.721+554.017+720.262+548.847+720.262C540.199+720.262+532.28+718.828+525.089+715.961C517.898+713.094+511.717+709.123+506.547+704.047C501.377+698.971+497.335+693.025+494.421+686.21C491.507+679.395+490.05+672.04+490.05+664.144ZM518.955+664.144C518.955+668.374+519.754+672.275+521.352+675.847C522.95+679.419+525.112+682.521+527.838+685.153C530.564+687.785+533.737+689.829+537.356+691.286C540.975+692.743+544.805+693.472+548.847+693.472C551.291+693.472+553.735+693.19+556.179+692.626L540.387+675.988L566.472+672.745L573.804+680.5C577.188+675.8+578.88+670.348+578.88+664.144C578.88+659.914+578.081+656.013+576.483+652.441C574.885+648.869+572.7+645.767+569.927+643.135C567.154+640.503+563.958+638.458+560.339+637.001C556.72+635.544+552.889+634.816+548.847+634.816C544.805+634.816+540.975+635.544+537.356+637.001C533.737+638.458+530.564+640.503+527.838+643.135C525.112+645.767+522.95+648.869+521.352+652.441C519.754+656.013+518.955+659.914+518.955+664.144Z" opacity="1" fill="#132d72"/>
<path d="M702.905+610.987L702.905+668.797C702.905+671.899+703.023+675.071+703.258+678.314C703.493+681.557+704.198+684.495+705.373+687.127C706.548+689.759+708.404+691.897+710.942+693.542C713.48+695.187+717.052+696.01+721.658+696.01C726.264+696.01+729.813+695.187+732.304+693.542C734.795+691.897+736.651+689.759+737.873+687.127C739.095+684.495+739.824+681.557+740.059+678.314C740.294+675.071+740.411+671.899+740.411+668.797L740.411+610.987L767.906+610.987L767.906+672.604C767.906+689.148+764.123+701.227+756.556+708.841C748.989+716.455+737.356+720.262+721.658+720.262C705.96+720.262+694.304+716.455+686.69+708.841C679.076+701.227+675.269+689.148+675.269+672.604L675.269+610.987L702.905+610.987Z" opacity="1" fill="#132d72"/>
<path d="M900.673+634.393L867.82+634.393L867.82+652.159L898.84+652.159L898.84+675.565L867.82+675.565L867.82+693.895L900.673+693.895L900.673+717.301L840.184+717.301L840.184+610.987L900.673+610.987L900.673+634.393Z" opacity="1" fill="#132d72"/>
</g>
</g>
<g id="Layer 2 copy" vectornator:layerName="Layer 2 copy">
<g opacity="1">
<path d="M288.877+742.599L288.877+745.87C287.856+745.14+286.938+744.775+286.122+744.775C285.241+744.775+284.521+745.086+283.962+745.709C283.404+746.3+283.125+747.09+283.125+748.078C283.125+748.948+283.323+749.695+283.721+750.318C283.925+750.651+284.261+751.08+284.728+751.607C285.195+752.133+285.799+752.767+286.541+753.508C287.905+754.894+288.834+756.092+289.328+757.101C289.822+758.079+290.069+759.277+290.069+760.695C290.069+762.618+289.527+764.202+288.442+765.448C287.357+766.662+285.966+767.269+284.269+767.269C282.84+767.269+281.621+766.877+280.611+766.093L280.611+762.773C281.803+763.643+282.888+764.078+283.866+764.078C284.779+764.078+285.493+763.775+286.009+763.168C286.524+762.561+286.782+761.737+286.782+760.695C286.782+759.792+286.584+758.981+286.186+758.262C285.982+757.918+285.697+757.523+285.332+757.077C284.967+756.631+284.51+756.135+283.962+755.587C283.114+754.749+282.41+754.008+281.852+753.363C281.293+752.719+280.879+752.155+280.611+751.671C280.095+750.726+279.837+749.534+279.837+748.094C279.837+746.15+280.342+744.608+281.352+743.47C282.373+742.32+283.742+741.745+285.461+741.745C286.653+741.745+287.792+742.03+288.877+742.599Z" opacity="1" fill="#132d72"/>
<path d="M316.744+755.136C316.744+759.529+316.255+762.65+315.277+764.497C314.3+766.345+312.662+767.269+310.363+767.269C307.946+767.269+306.243+766.275+305.255+764.288C304.277+762.344+303.789+758.89+303.789+753.927C303.789+749.501+304.272+746.37+305.239+744.533C306.216+742.685+307.871+741.762+310.202+741.762C312.286+741.762+313.833+742.476+314.842+743.905C315.508+744.861+315.992+746.22+316.293+747.981C316.593+749.614+316.744+751.999+316.744+755.136ZM313.231+755.49C313.231+751.182+313.038+748.325+312.651+746.918C312.264+745.5+311.475+744.791+310.282+744.791C309.09+744.791+308.295+745.441+307.898+746.741C307.511+748.051+307.317+750.683+307.317+754.636C307.317+758.278+307.522+760.802+307.93+762.209C308.349+763.541+309.133+764.207+310.282+764.207C311.41+764.207+312.184+763.584+312.603+762.338C313.022+761.103+313.231+758.82+313.231+755.49Z" opacity="1" fill="#132d72"/>
<path d="M331.462+742.084L340.421+742.084L340.421+744.92L334.814+744.92L334.814+752.783L339.873+752.783L339.873+755.619L334.814+755.619L334.814+766.963L331.462+766.963L331.462+742.084Z" opacity="1" fill="#132d72"/>
<path d="M352.416+742.084L363.325+742.084L363.325+745.016L359.571+745.016L359.571+766.963L356.283+766.963L356.283+745.016L352.416+745.016L352.416+742.084Z" opacity="1" fill="#132d72"/>
<path d="M376.126+742.084L379.365+742.084L381.056+753.637L381.33+755.345C381.459+756.269+381.556+757.112+381.62+757.875L381.798+759.986C381.808+760.039+381.819+760.136+381.83+760.276C381.841+760.415+381.857+760.593+381.878+760.807L381.959+760.002C382.088+758.595+382.225+757.3+382.37+756.118C382.515+754.937+382.673+753.847+382.845+752.848L384.634+742.084L387.212+742.084L388.888+752.541C389.135+754.088+389.341+755.522+389.508+756.844C389.674+758.165+389.811+759.427+389.919+760.63C390.026+759.363+390.147+758.138+390.281+756.956C390.416+755.775+390.558+754.615+390.708+753.476L390.95+751.816L392.384+742.084L395.591+742.084L391.192+766.963L388.581+766.963L386.825+756.215C386.814+756.172+386.787+755.995+386.744+755.683C386.701+755.372+386.637+754.926+386.551+754.346L386.213+751.865C386.191+751.671+386.156+751.381+386.108+750.994C386.06+750.608+386.009+750.119+385.955+749.528L385.874+748.497C385.853+748.744+385.831+748.959+385.81+749.141C385.788+749.324+385.772+749.474+385.762+749.593C385.708+750.302+385.662+750.852+385.625+751.244C385.587+751.636+385.563+751.875+385.552+751.961L385.214+754.346C385.138+754.894+385.079+755.324+385.036+755.635C384.993+755.947+384.961+756.14+384.94+756.215L383.119+766.963L380.428+766.963L376.126+742.084Z" opacity="1" fill="#132d72"/>
<path d="M411.936+742.084L414.547+742.084L419.88+766.963L416.561+766.963L415.626+762.113L410.696+762.113L409.745+766.963L406.522+766.963L411.936+742.084ZM415.143+759.518L414.402+755.555C413.908+752.858+413.505+749.979+413.193+746.918C413.043+748.411+412.85+749.923+412.613+751.454C412.377+752.984+412.098+754.609+411.775+756.328L411.163+759.518L415.143+759.518Z" opacity="1" fill="#132d72"/>
<path d="M433.245+742.084L437.66+742.084C439.486+742.084+440.845+742.519+441.737+743.389C442.865+744.517+443.429+746.241+443.429+748.561C443.429+750.345+443.131+751.776+442.534+752.856C441.938+753.935+441.087+754.604+439.98+754.862L444.557+766.963L441.157+766.963L436.597+754.781L436.597+766.963L433.245+766.963L433.245+742.084ZM436.597+753.105C437.896+753.105+438.815+752.805+439.352+752.203C439.889+751.601+440.158+750.586+440.158+749.158C440.158+748.384+440.101+747.723+439.988+747.176C439.876+746.628+439.698+746.182+439.457+745.838C439.215+745.494+438.904+745.242+438.522+745.081C438.141+744.92+437.687+744.839+437.161+744.839L436.597+744.839L436.597+753.105Z" opacity="1" fill="#132d72"/>
<path d="M458.55+742.084L467.46+742.084L467.46+744.92L461.901+744.92L461.901+752.799L466.832+752.799L466.832+755.635L461.901+755.635L461.901+764.127L467.46+764.127L467.46+766.963L458.55+766.963L458.55+742.084Z" opacity="1" fill="#132d72"/>
<path d="M500.168+742.084L509.079+742.084L509.079+744.92L503.52+744.92L503.52+752.799L508.45+752.799L508.45+755.635L503.52+755.635L503.52+764.127L509.079+764.127L509.079+766.963L500.168+766.963L500.168+742.084Z" opacity="1" fill="#132d72"/>
<path d="M523.555+742.084L526.681+742.084L530.017+752.01C530.984+754.813+531.838+757.805+532.579+760.985C532.31+759.062+532.112+757.322+531.983+755.764C531.854+754.206+531.789+752.74+531.789+751.365L531.789+742.084L535.157+742.084L535.157+766.963L532.015+766.963L528.261+755.764C527.917+754.722+527.592+753.653+527.286+752.557C526.98+751.462+526.698+750.312+526.44+749.109C526.418+748.959+526.383+748.776+526.335+748.561C526.287+748.347+526.23+748.099+526.166+747.82C526.198+748.099+526.225+748.338+526.246+748.537C526.268+748.736+526.284+748.905+526.295+749.045L526.472+751.575L526.649+754.652C526.66+754.824+526.668+755.034+526.673+755.281C526.679+755.528+526.681+755.807+526.681+756.118L526.859+766.963L523.555+766.963L523.555+742.084Z" opacity="1" fill="#132d72"/>
<path d="M556.353+753.879L562.444+753.879L562.444+754.846C562.444+759.69+562.019+762.961+561.171+764.659C560.333+766.399+558.765+767.269+556.466+767.269C554.092+767.269+552.4+766.302+551.39+764.368C550.391+762.435+549.891+759.185+549.891+754.62C549.891+749.399+550.439+745.924+551.535+744.195C552.566+742.573+554.151+741.762+556.288+741.762C557.921+741.762+559.194+742.154+560.107+742.938C561.031+743.733+561.751+745.038+562.266+746.853L559.14+748.159C559.001+747.503+558.845+746.953+558.673+746.507C558.501+746.061+558.313+745.715+558.109+745.468C557.701+744.963+557.089+744.71+556.272+744.71C555.155+744.71+554.392+745.398+553.984+746.773C553.576+748.212+553.372+750.796+553.372+754.523C553.372+758.294+553.581+760.845+554+762.177C554.419+763.509+555.209+764.175+556.369+764.175C557.432+764.175+558.179+763.702+558.609+762.757C559.049+761.747+559.269+760.125+559.269+757.891L559.269+757.214L559.269+756.715L556.353+756.715L556.353+753.879Z" opacity="1" fill="#132d72"/>
<path d="M577.178+742.084L580.53+742.084L580.53+766.963L577.178+766.963L577.178+742.084Z" opacity="1" fill="#132d72"/>
<path d="M595.764+742.084L598.89+742.084L602.225+752.01C603.192+754.813+604.046+757.805+604.787+760.985C604.519+759.062+604.32+757.322+604.191+755.764C604.062+754.206+603.998+752.74+603.998+751.365L603.998+742.084L607.365+742.084L607.365+766.963L604.223+766.963L600.469+755.764C600.125+754.722+599.8+753.653+599.494+752.557C599.188+751.462+598.906+750.312+598.648+749.109C598.626+748.959+598.592+748.776+598.543+748.561C598.495+748.347+598.438+748.099+598.374+747.82C598.406+748.099+598.433+748.338+598.455+748.537C598.476+748.736+598.492+748.905+598.503+749.045L598.68+751.575L598.857+754.652C598.868+754.824+598.876+755.034+598.882+755.281C598.887+755.528+598.89+755.807+598.89+756.118L599.067+766.963L595.764+766.963L595.764+742.084Z" opacity="1" fill="#132d72"/>
<path d="M622.599+742.084L631.51+742.084L631.51+744.92L625.951+744.92L625.951+752.799L630.881+752.799L630.881+755.635L625.951+755.635L625.951+764.127L631.51+764.127L631.51+766.963L622.599+766.963L622.599+742.084Z" opacity="1" fill="#132d72"/>
<path d="M645.986+742.084L654.897+742.084L654.897+744.92L649.338+744.92L649.338+752.799L654.269+752.799L654.269+755.635L649.338+755.635L649.338+764.127L654.897+764.127L654.897+766.963L645.986+766.963L645.986+742.084Z" opacity="1" fill="#132d72"/>
<path d="M669.374+742.084L673.789+742.084C675.615+742.084+676.974+742.519+677.865+743.389C678.993+744.517+679.557+746.241+679.557+748.561C679.557+750.345+679.259+751.776+678.663+752.856C678.067+753.935+677.216+754.604+676.109+754.862L680.685+766.963L677.285+766.963L672.725+754.781L672.725+766.963L669.374+766.963L669.374+742.084ZM672.725+753.105C674.025+753.105+674.944+752.805+675.481+752.203C676.018+751.601+676.286+750.586+676.286+749.158C676.286+748.384+676.23+747.723+676.117+747.176C676.004+746.628+675.827+746.182+675.585+745.838C675.344+745.494+675.032+745.242+674.651+745.081C674.27+744.92+673.816+744.839+673.289+744.839L672.725+744.839L672.725+753.105Z" opacity="1" fill="#132d72"/>
<path d="M694.679+742.084L698.03+742.084L698.03+766.963L694.679+766.963L694.679+742.084Z" opacity="1" fill="#132d72"/>
<path d="M713.264+742.084L716.39+742.084L719.725+752.01C720.692+754.813+721.546+757.805+722.287+760.985C722.019+759.062+721.82+757.322+721.691+755.764C721.562+754.206+721.498+752.74+721.498+751.365L721.498+742.084L724.866+742.084L724.866+766.963L721.724+766.963L717.969+755.764C717.625+754.722+717.3+753.653+716.994+752.557C716.688+751.462+716.406+750.312+716.148+749.109C716.127+748.959+716.092+748.776+716.044+748.561C715.995+748.347+715.939+748.099+715.874+747.82C715.907+748.099+715.933+748.338+715.955+748.537C715.976+748.736+715.993+748.905+716.003+749.045L716.181+751.575L716.358+754.652C716.369+754.824+716.377+755.034+716.382+755.281C716.387+755.528+716.39+755.807+716.39+756.118L716.567+766.963L713.264+766.963L713.264+742.084Z" opacity="1" fill="#132d72"/>
<path d="M746.061+753.879L752.152+753.879L752.152+754.846C752.152+759.69+751.728+762.961+750.879+764.659C750.041+766.399+748.473+767.269+746.174+767.269C743.8+767.269+742.108+766.302+741.099+764.368C740.1+762.435+739.6+759.185+739.6+754.62C739.6+749.399+740.148+745.924+741.244+744.195C742.275+742.573+743.859+741.762+745.997+741.762C747.63+741.762+748.903+742.154+749.816+742.938C750.74+743.733+751.459+745.038+751.975+746.853L748.849+748.159C748.709+747.503+748.554+746.953+748.382+746.507C748.21+746.061+748.022+745.715+747.818+745.468C747.41+744.963+746.797+744.71+745.981+744.71C744.864+744.71+744.101+745.398+743.693+746.773C743.285+748.212+743.081+750.796+743.081+754.523C743.081+758.294+743.29+760.845+743.709+762.177C744.128+763.509+744.917+764.175+746.078+764.175C747.141+764.175+747.888+763.702+748.317+762.757C748.758+761.747+748.978+760.125+748.978+757.891L748.978+757.214L748.978+756.715L746.061+756.715L746.061+753.879Z" opacity="1" fill="#132d72"/>
<path d="M785.118+742.084L788.469+742.084L788.469+764.127L793.948+764.127L793.948+766.963L785.118+766.963L785.118+742.084Z" opacity="1" fill="#132d72"/>
<path d="M812.308+742.084L814.918+742.084L820.252+766.963L816.932+766.963L815.998+762.113L811.067+762.113L810.116+766.963L806.894+766.963L812.308+742.084ZM815.514+759.518L814.773+755.555C814.279+752.858+813.876+749.979+813.565+746.918C813.414+748.411+813.221+749.923+812.985+751.454C812.748+752.984+812.469+754.609+812.147+756.328L811.534+759.518L815.514+759.518Z" opacity="1" fill="#132d72"/>
<path d="M833.616+742.084L838.16+742.084C841.716+742.084+843.494+744.291+843.494+748.706C843.494+750.393+843.263+751.644+842.801+752.461C842.339+753.277+841.523+753.895+840.352+754.314C841.695+754.851+842.613+755.538+843.107+756.376C843.612+757.203+843.865+758.45+843.865+760.115C843.865+764.68+841.909+766.963+837.999+766.963L833.616+766.963L833.616+742.084ZM836.775+753.041C838.074+753.041+838.977+752.74+839.482+752.139C839.987+751.505+840.239+750.393+840.239+748.803C840.239+746.118+839.272+744.775+837.339+744.775L837.081+744.775L836.936+744.775C836.85+744.775+836.796+744.78+836.775+744.791L836.775+753.041ZM836.775+764.095C838.15+764.095+839.1+763.799+839.627+763.208C840.153+762.618+840.416+761.549+840.416+760.002C840.416+758.412+840.142+757.3+839.595+756.666C839.057+756.022+838.117+755.7+836.775+755.7L836.775+764.095Z" opacity="1" fill="#132d72"/>
<path d="M866.897+742.599L866.897+745.87C865.877+745.14+864.958+744.775+864.142+744.775C863.261+744.775+862.541+745.086+861.983+745.709C861.424+746.3+861.145+747.09+861.145+748.078C861.145+748.948+861.344+749.695+861.741+750.318C861.945+750.651+862.281+751.08+862.748+751.607C863.215+752.133+863.82+752.767+864.561+753.508C865.925+754.894+866.854+756.092+867.348+757.101C867.843+758.079+868.09+759.277+868.09+760.695C868.09+762.618+867.547+764.202+866.462+765.448C865.377+766.662+863.986+767.269+862.289+767.269C860.86+767.269+859.641+766.877+858.631+766.093L858.631+762.773C859.824+763.643+860.909+764.078+861.886+764.078C862.799+764.078+863.514+763.775+864.029+763.168C864.545+762.561+864.803+761.737+864.803+760.695C864.803+759.792+864.604+758.981+864.206+758.262C864.002+757.918+863.718+757.523+863.352+757.077C862.987+756.631+862.531+756.135+861.983+755.587C861.134+754.749+860.431+754.008+859.872+753.363C859.313+752.719+858.9+752.155+858.631+751.671C858.116+750.726+857.858+749.534+857.858+748.094C857.858+746.15+858.363+744.608+859.372+743.47C860.393+742.32+861.763+741.745+863.481+741.745C864.674+741.745+865.812+742.03+866.897+742.599Z" opacity="1" fill="#132d72"/>
</g>
</g>
</svg>
